<svg width="904" height="377" viewBox="0 0 904 377" fill="none" xmlns="http://www.w3.org/2000/svg">
<circle cx="20.1482" cy="195.386" r="6.87256" fill="white"/>
<path d="M250.17 195.386C250.17 202.413 246.75 209.152 240.47 215.33C234.189 221.51 225.073 227.099 213.769 231.803C191.162 241.21 159.896 247.04 125.335 247.04C90.7743 247.04 59.5087 241.21 36.9019 231.803C25.5974 227.099 16.4819 221.51 10.2001 215.33C3.92009 209.152 0.5 202.413 0.5 195.386C0.5 188.36 3.92009 181.62 10.2001 175.442C16.4819 169.262 25.5974 163.674 36.9019 158.97C59.5087 149.563 90.7743 143.732 125.335 143.732C159.896 143.732 191.162 149.563 213.769 158.97C225.073 163.674 234.189 169.262 240.47 175.442C246.75 181.62 250.17 188.36 250.17 195.386Z" stroke="white"/>
<path d="M373.358 195.386C373.358 205.952 368.215 216.062 358.818 225.307C349.419 234.553 335.793 242.903 318.916 249.926C285.163 263.971 238.499 272.67 186.929 272.67C135.359 272.67 88.6954 263.971 54.9424 249.926C38.0647 242.903 24.4391 234.553 15.0405 225.307C5.64362 216.062 0.5 205.952 0.5 195.386C0.5 184.821 5.64362 174.711 15.0405 165.466C24.4391 156.219 38.0647 147.87 54.9424 140.847C88.6954 126.801 135.359 118.103 186.929 118.103C238.499 118.103 285.163 126.801 318.916 140.847C335.793 147.87 349.419 156.219 358.818 165.466C368.215 174.711 373.358 184.821 373.358 195.386Z" stroke="white"/>
<path d="M482.435 195.386C482.435 209.085 475.765 222.181 463.609 234.141C451.45 246.102 433.831 256.897 412.019 265.973C368.396 284.125 308.097 295.364 241.468 295.364C174.838 295.364 114.539 284.125 70.9163 265.973C49.1039 256.897 31.4848 246.102 19.3264 234.141C7.16973 222.181 0.5 209.085 0.5 195.386C0.5 181.688 7.16973 168.592 19.3264 156.632C31.4848 144.671 49.1039 133.876 70.9163 124.799C114.539 106.647 174.838 95.4082 241.468 95.4082C308.097 95.4082 368.396 106.647 412.019 124.799C433.831 133.876 451.45 144.671 463.609 156.632C475.765 168.592 482.435 181.688 482.435 195.386Z" stroke="white"/>
<path d="M670.819 188.514C670.819 207.624 661.513 225.875 644.59 242.524C627.666 259.175 603.15 274.193 572.814 286.816C512.146 312.06 428.3 327.686 335.659 327.686C243.019 327.686 159.172 312.06 98.5045 286.816C68.1694 274.193 43.6532 259.175 26.7284 242.524C9.80543 225.875 0.5 207.624 0.5 188.514C0.5 169.403 9.80543 151.152 26.7284 134.503C43.6532 117.852 68.1694 102.835 98.5045 90.2117C159.172 64.9668 243.019 49.3408 335.659 49.3408C428.3 49.3408 512.146 64.9668 572.814 90.2117C603.15 102.835 627.666 117.852 644.59 134.503C661.513 151.152 670.819 169.403 670.819 188.514Z" stroke="white"/>
<path d="M902.952 188.514C902.952 214.292 890.398 238.896 867.602 261.323C844.804 283.752 811.789 303.974 770.952 320.967C689.28 354.951 576.417 375.983 451.726 375.983C327.035 375.983 214.171 354.951 132.5 320.967C91.6625 303.974 58.6475 283.752 35.8495 261.323C13.0532 238.896 0.5 214.292 0.5 188.514C0.5 162.735 13.0532 138.131 35.8495 115.704C58.6475 93.2749 91.6625 73.0535 132.5 56.0606C214.171 22.0758 327.035 1.04395 451.726 1.04395C576.417 1.04395 689.28 22.0758 770.952 56.0606C811.789 73.0535 844.804 93.2749 867.602 115.704C890.398 138.131 902.952 162.735 902.952 188.514Z" stroke="white"/>
</svg>
